# xmcd
# 
# Track frame offsets:
#     183
#     14382
#     30979
#     49144
#     64311
#     85978
#     98124
#     113257
#     125705
#     139964
#     155432
#     169802
#     185195
#     197831
#     211303
# 
# Disc length: 3050
# 
# Revision: 1
# Processed by: cddbd v1.5.2PL0 Copyright (c) Steve Scherf et al.
# Submitted via: fre:ac v1.1beta2
# 
DISCID=d30be80f
DTITLE=Lauren Sheehan - Rose City Ramble
DYEAR=2011
DGENRE=Folk
TTITLE0=The Memory of Your Smile
TTITLE1=Dirty Rat Swing
TTITLE2=In the Wee Midnight Hours
TTITLE3=Carroll Country Blues
TTITLE4=Chilly Waters
TTITLE5=Honey Baby Blues
TTITLE6=Black is the Color
TTITLE7=Oh, the Candyman
TTITLE8=Satisfied Mind
TTITLE9=I Want Jesus to Walk with Me
TTITLE10=Little Bird of Heaven
TTITLE11=Oh, My Stars
TTITLE12=Louie's Blues
TTITLE13=Can't Afford to Lose My Man
TTITLE14=I'm So Lonesome I Could Cry
EXTD=
EXTT0=
EXTT1=
EXTT2=
EXTT3=
EXTT4=
EXTT5=
EXTT6=
EXTT7=
EXTT8=
EXTT9=
EXTT10=
EXTT11=
EXTT12=
EXTT13=
EXTT14=
PLAYORDER=
